<?xml version="1.0" encoding="UTF-8"?>
<svg version="1.1" xmlns="http://www.w3.org/2000/svg" width="445" height="424">
<path d="M0 0 C146.85 0 293.7 0 445 0 C445 139.92 445 279.84 445 424 C298.15 424 151.3 424 0 424 C0 284.08 0 144.16 0 0 Z " fill="#FEFEFE" transform="translate(0,0)"/>
<path d="M0 0 C8.74498401 -0.16253012 17.48944452 -0.28673831 26.23561192 -0.3626852 C30.2973489 -0.39914545 34.35804913 -0.44855834 38.41918945 -0.52807617 C42.34205675 -0.60440173 46.26393007 -0.64604448 50.18748283 -0.6641407 C51.68066996 -0.67702803 53.17380552 -0.70219589 54.66656685 -0.7401104 C66.34633182 -1.02483717 66.34633182 -1.02483717 70.43838501 1.51115417 C72.20456017 3.25156769 73.60606655 4.95595244 75 7 C75.74765625 7.88042969 76.4953125 8.76085937 77.265625 9.66796875 C78.24789062 10.91513672 78.24789062 10.91513672 79.25 12.1875 C82.53320456 16.26917097 85.93234005 20.17020349 89.5 24 C92.95180336 27.7084408 96.26523201 31.48507207 99.4375 35.4375 C103.28110057 40.21621628 107.36960164 44.69157687 111.55834961 49.16381836 C115.4599667 53.35329526 119.07324797 57.72172936 122.65625 62.1875 C125.81172156 65.97406588 129.17146805 69.5489286 132.54101562 73.14428711 C136.59382698 77.49429596 140.36437871 82.00248455 144.0625 86.66015625 C145.90992638 89.02412886 145.90992638 89.02412886 148.0927124 90.80230713 C150.4891309 93.5636064 150.48725337 94.88938252 150.45410156 98.50292969 C150.45379944 99.60376892 150.45349731 100.70460815 150.45318604 101.83880615 C150.42221832 103.61242523 150.42221832 103.61242523 150.390625 105.421875 C150.38496521 106.63699768 150.37930542 107.85212036 150.37347412 109.10406494 C150.35107734 112.98644343 150.30087187 116.86790028 150.25 120.75 C150.2299394 123.38149709 150.21168787 126.01300864 150.1953125 128.64453125 C150.15120153 135.09666881 150.08425519 141.54826856 150 148 C141.15949199 148.25572175 132.32027022 148.45073429 123.476861 148.56993389 C119.36955032 148.62716897 115.26478247 148.70467823 111.15893555 148.82983398 C107.19052441 148.95003281 103.22454546 149.0152575 99.25445366 149.04364967 C97.74594262 149.06385909 96.23755391 149.10333084 94.73008919 149.16303062 C82.94424952 149.61089452 82.94424952 149.61089452 78.16818237 145.65371704 C75.8847318 142.86945517 73.95296722 140.02121478 72 137 C70.5308748 135.30605522 69.03450178 133.63495629 67.5 132 C63.58108748 127.70008209 59.90829131 123.24080453 56.25 118.71875 C54.06498431 116.07852271 51.80828609 113.5327028 49.5 111 C45.58108748 106.70008209 41.90829131 102.24080453 38.25 97.71875 C36.06498431 95.07852271 33.80828609 92.5327028 31.5 90 C27.58108748 85.70008209 23.90829131 81.24080453 20.25 76.71875 C18.06498431 74.07852271 15.80828609 71.5327028 13.5 69 C12.80898193 68.20891846 12.11796387 67.41783691 11.40600586 66.6027832 C9.11063666 63.99581323 9.11063666 63.99581323 6.61157227 62.0612793 C1.63392895 57.47021902 -0.17907334 53.8102762 -0.72509766 47.14306641 C-0.99840678 40.02677601 -0.78561319 32.92733185 -0.5625 25.8125 C-0.51730566 23.30931675 -0.47624983 20.80605515 -0.43945312 18.30273438 C-0.34078681 12.20010034 -0.19063054 6.10041739 0 0 Z " fill="#000000" transform="translate(217,82)"/>
<path d="M0 0 C1.44923139 1.33231403 2.85320845 2.71484614 4.21875 4.1328125 C7.07613738 7.04081383 10.16101745 9.44326101 13.39453125 11.9140625 C18.69338509 16.02260446 23.85564442 20.25987149 28.95556641 24.61206055 C34.12185011 29.02035973 39.37626638 33.31577874 44.64453125 37.6015625 C46.37403992 39.01781161 48.10319942 40.43448723 49.83203125 41.8515625 C53.69683035 45.01617688 57.57406159 48.1648676 61.45800781 51.3059082 C64.20321414 53.53061769 66.93912874 55.76662686 69.67529297 58.00244141 C71.52055069 59.50088402 73.37946024 60.98040972 75.2421875 62.45703125 C85.45487576 70.65948655 94.97270893 80.29588737 97.64453125 93.6015625 C98.91337999 106.62939317 96.10392493 117.82163703 88.64453125 128.6015625 C79.0492796 139.45934726 65.48287603 145.10777841 51.14453125 146.2890625 C44.75932754 146.05523814 41.04699234 142.94128972 36.28173828 138.94970703 C33.78542895 136.89414185 31.2040797 134.95410037 28.62841797 132.99951172 C26.42063788 131.32394217 24.22151754 129.63748713 22.0234375 127.94921875 C18.00139272 124.86750701 13.95354015 121.82184504 9.89453125 118.7890625 C2.61486262 113.34786992 -4.61881273 107.84744133 -11.83642578 102.32421875 C-17.36643247 98.09538328 -17.36643247 98.09538328 -22.97265625 93.96875 C-37.822497 83.20743683 -50.25834668 70.02376717 -54.35546875 51.6015625 C-55.65873289 38.03441785 -54.17517149 27.1167877 -46.16796875 15.7890625 C-37.17628273 5.07267808 -14.02370649 -8.32584896 0 0 Z " fill="#010101" transform="translate(107.35546875,84.3984375)"/>
<path d="M0 0 C3.84995812 3.07996649 6.29407961 5.36988632 9.25 9.125 C12.23639306 12.85304697 15.277863 16.47367524 18.5 20 C22.41891252 24.29991791 26.09170869 28.75919547 29.75 33.28125 C31.93501569 35.92147729 34.19171391 38.4672972 36.5 41 C39.61458668 44.41739372 42.5918662 47.9052235 45.5 51.5 C49.18828724 56.05877461 53.03977604 60.42855802 56.98046875 64.76953125 C64 72.52224371 64 72.52224371 64 75 C42.88 75 21.76 75 0 75 C0 50.25 0 25.5 0 0 Z " fill="#020202" transform="translate(217,155)"/>
<path d="M0 0 C21.45 0 42.9 0 65 0 C65 24.75 65 49.5 65 75 C57.28636352 67.28636352 50.12889281 59.23721926 43.28125 50.75 C40.93281032 47.91900422 38.49090098 45.20616402 36 42.5 C31.90648909 38.05272888 28.07557501 33.45282537 24.28125 28.75 C21.93281032 25.91900422 19.49090098 23.20616402 17 20.5 C10.97507001 13.94871107 5.33985166 7.11980221 0 0 Z " fill="#020202" transform="translate(302,82)"/>
<path d="M0 0 C4.37917312 1.75166925 6.47579304 2.9878483 9.9375 5.9375 C11.37802734 7.1440625 11.37802734 7.1440625 12.84765625 8.375 C13.35828613 8.80296875 13.86891602 9.2309375 14.39501953 9.671875 C17.18163945 11.97780934 20.02754274 14.20744492 22.875 16.4375 C23.4630542 16.89866211 24.0511084 17.35982422 24.65698242 17.83496094 C29.21439944 21.40125641 33.80126455 24.92846581 38.39501953 28.44775391 C41.54471694 30.86536466 44.66080203 33.31818137 47.75 35.8125 C52.34263043 39.50771989 57.00747872 43.10413892 61.6875 46.6875 C62.40067383 47.23446533 63.11384766 47.78143066 63.84863281 48.3449707 C67.19227513 50.898559 70.55048792 53.38854172 74.01953125 55.76953125 C75.00308594 56.50558594 75.98664063 57.24164063 77 58 C77 58.66 77 59.32 77 60 C51.59 60 26.18 60 0 60 C0 40.2 0 20.4 0 0 Z " fill="#010101" transform="translate(54,170)"/>
<path d="M0 0 C23.76 0 47.52 0 72 0 C72 19.47 72 38.94 72 59 C68.51238863 57.25619432 66.19971874 55.65628634 63.25 53.1875 C62.28578125 52.38699219 61.3215625 51.58648437 60.328125 50.76171875 C59.79896484 50.32134277 59.26980469 49.8809668 58.72460938 49.42724609 C55.50265444 46.76083209 52.24886328 44.13349892 49 41.5 C42.65430866 36.34835439 36.32215034 31.18051773 30 26 C28.16678352 24.49985719 26.33344854 22.99985918 24.5 21.5 C23.59636719 20.76007813 22.69273437 20.02015625 21.76171875 19.2578125 C19.89163112 17.72894312 18.01916084 16.20298432 16.14453125 14.6796875 C3.63445211 4.49907137 3.63445211 4.49907137 0 1 C0 0.67 0 0.34 0 0 Z " fill="#030303" transform="translate(124,82)"/>
</svg>
